# xmcd
#
# Track frame offsets: 
#        182
#        18265
#        40257
#        56907
#        79957
#        101517
#        120245
#        138500
#        160785
#        180722
#        205175
#        229120
#
# Disc length: 3147 seconds
#
# Revision: 5
# Processed by: cddbd v1.5.2PL0 Copyright (c) Steve Scherf et al.
# Submitted via: ExactAudioCopy v1.0b3
#
DISCID=990c490c
DTITLE=Atlantic Starr - All In The Name Of love
DYEAR=1987
DGENRE=R&B/Soul
TTITLE0=One Lover At A Time
TTITLE1=You Belong With Me
TTITLE2=Females
TTITLE3=Don't Take Me For Granted
TTITLE4=Always
TTITLE5=Armed And Dangerous
TTITLE6=Let The Sun In
TTITLE7=Thankful
TTITLE8=I'm In Love
TTITLE9=All In The Name Of Love
TTITLE10=My Mistake
TTITLE11=Interlude
EXTD=
EXTT0=
EXTT1=
EXTT2=
EXTT3=
EXTT4=
EXTT5=
EXTT6=
EXTT7=
EXTT8=
EXTT9=
EXTT10=
EXTT11=
PLAYORDER=
